Milo is a boy who is bored with life. One day he comes home to find a toll booth in his room. Having nothing better to do, he gets in his toy car and drives through - only to emerge in a cartoon world full of adventure.
 
http://imageshack.us/a/img836/1026/vlcsnap2012121106h49m04.png 
http://imageshack.us/a/img818/3509/vlcsnap2012121106h49m25.png 
http://imageshack.us/a/img820/3263/vlcsnap2012121106h50m39.png 
http://imageshack.us/a/img651/2960/vlcsnap2012121106h51m02.png 
http://imageshack.us/a/img89/2446/vlcsnap2012121106h51m25.png

Video
ID                                       : 1
Format                                   : AVC
Format/Info                              : Advanced Video Codec
Format profile                           : Main@L3.0
Format settings, CABAC                   : Yes
Format settings, ReFrames                : 4 frames
Codec ID                                 : avc1
Codec ID/Info                            : Advanced Video Coding
Duration                                 : 1h 25mn
Bit rate                                 : 731 Kbps
Width                                    : 640 pixels
Height                                   : 448 pixels
Display aspect ratio                     : 1.417
Frame rate mode                          : Constant
Frame rate                               : 25.000 fps
Color space                              : YUV
Chroma subsampling                       : 4:2:0
Bit depth                                : 8 bits
Scan type                                : Progressive
Bits/(Pixel*Frame)                       : 0.102
Stream size                              : 448 MiB (76%)
Writing library                          : x264 core 120
Encoded date                             : UTC 2012-12-09 19:39:34
Tagged date                              : UTC 2012-12-09 00:50:38
Color primaries                          : BT.601 NTSC
Transfer characteristics                 : BT.709
Matrix coefficients                      : BT.601

Audio
ID                                       : 2
Format                                   : AC-3
Format/Info                              : Audio Coding 3
Mode extension                           : CM (complete main)
Format settings, Endianness              : Big
Codec ID                                 : ac-3
Duration                                 : 1h 25mn
Bit rate mode                            : Constant
Bit rate                                 : 224 Kbps
Channel(s)                               : 2 channels
Channel positions                        : Front: L R
Sampling rate                            : 44.1 KHz
Bit depth                                : 16 bits
Compression mode                         : Lossy
Stream size                              : 137 MiB (23%)
Encoded date                             : UTC 2012-12-09 19:39:34
Tagged date                              : UTC 2012-12-09 00:50:38

